<svg width="151" height="151" viewBox="0 0 151 151" fill="none" xmlns="http://www.w3.org/2000/svg">
<path d="M144.228 14.1945C143.841 6.6112 139.585 0.666748 134.536 0.666748H16.4636C11.4149 0.666748 7.15858 6.6112 6.77164 14.1945L0.525281 136.611C0.341022 140.222 1.17018 143.833 2.81008 146.472C4.43156 149.139 6.75321 150.667 9.167 150.667H141.833C144.247 150.667 146.55 149.139 148.19 146.472C149.83 143.806 150.659 140.222 150.475 136.611L144.228 14.1945ZM16.4636 6.2223H134.518C137.613 6.2223 140.212 9.83341 140.525 14.4445L133.947 69.7779C133.357 74.8056 130.464 78.4445 127.092 78.4445H92.0832V75.4723C92.0832 70.9723 89.651 67.3334 86.6845 67.3334H64.3155C61.349 67.3334 58.9167 71.0001 58.9167 75.4723V78.4445H23.9077C20.5173 78.4445 17.6429 74.8056 17.0348 69.7779L10.4568 14.4445C10.77 9.83341 13.3681 6.2223 16.4636 6.2223ZM62.6019 75.4723C62.6019 74.0279 63.3758 72.889 64.3155 72.889H86.6661C87.6242 72.889 88.3797 74.0556 88.3797 75.4723V86.9445C88.3797 88.389 87.6058 89.5279 86.6661 89.5279H64.3155C63.3758 89.5556 62.6019 88.389 62.6019 86.9723V75.4723ZM145.5 142.695C144.542 144.25 143.233 145.111 141.833 145.111H9.167C7.76663 145.111 6.47683 144.25 5.51868 142.695C4.56054 141.139 4.09989 139.139 4.21045 137.028L9.35125 36.389L13.4418 70.7501C14.3262 78.4445 18.7484 84.0001 23.9077 84.0001H58.9167V86.9723C58.9167 91.4723 61.349 95.1112 64.3155 95.1112H86.6661C89.651 95.1112 92.0648 91.4445 92.0648 86.9723V84.0001H127.074C132.252 84.0001 136.655 78.4445 137.577 70.7501L141.667 36.389L146.808 137.028C146.9 139.139 146.439 141.167 145.5 142.695ZM62.6019 36.7779C62.6019 35.2501 63.4311 34.0001 64.4445 34.0001H86.5555C87.5689 34.0001 88.3981 35.2501 88.3981 36.7779C88.3981 38.3056 87.5689 39.5556 86.5555 39.5556H64.4445C63.4311 39.5556 62.6019 38.3056 62.6019 36.7779Z" fill="#020B3A"/>
</svg>
