<svg width="151" height="151" viewBox="0 0 151 151" fill="none" xmlns="http://www.w3.org/2000/svg">
<path d="M143 15.6667H135.5V8.16675C135.5 4.0215 132.141 0.666748 128 0.666748C123.858 0.666748 120.5 4.0215 120.5 8.16675V19.548C116.346 22.6485 112.339 25.8937 108.447 29.2552C97.1585 20.7645 83.18 15.6667 68 15.6667C30.782 15.6667 0.5 45.945 0.5 83.1667C0.5 120.389 30.782 150.667 68 150.667C105.218 150.667 135.5 120.389 135.5 83.1667C135.5 67.986 130.402 54.0075 121.911 42.72C125.273 38.8275 128.518 34.8202 131.619 30.6667H143C147.141 30.6667 150.5 27.312 150.5 23.1667C150.5 19.0215 147.141 15.6667 143 15.6667ZM120.5 83.1667C120.5 112.112 96.9492 135.667 68 135.667C39.0508 135.667 15.5 112.112 15.5 83.1667C15.5 54.2212 39.0508 30.6667 68 30.6667C78.7678 30.6667 88.7818 33.9345 97.1217 39.5175C94.94 41.5927 92.7702 43.68 90.6253 45.792C89.0795 47.3437 87.5645 48.9255 86.0397 50.4975C80.663 47.5147 74.5723 45.6667 68 45.6667C47.324 45.6667 30.5 62.4907 30.5 83.1667C30.5 103.843 47.324 120.667 68 120.667C88.676 120.667 105.5 103.843 105.5 83.1667C105.5 76.5945 103.652 70.5037 100.669 65.127C102.241 63.6022 103.823 62.0872 105.374 60.5415C107.486 58.3965 109.573 56.2267 111.648 54.0442C117.232 62.385 120.5 72.3997 120.5 83.1667ZM90.5 83.1667C90.5 95.574 80.4072 105.667 68 105.667C55.5928 105.667 45.5 95.574 45.5 83.1667C45.5 70.7595 55.5928 60.6667 68 60.6667C70.5935 60.6667 73.0467 61.1963 75.3672 62.007C70.9235 67.0725 66.6568 72.315 62.6968 77.8635C60.8698 80.4322 60.7625 83.988 62.6968 86.6978C65.1365 90.1155 69.8848 90.909 73.3033 88.47C78.8518 84.51 84.0942 80.2432 89.1597 75.7995C89.9705 78.12 90.5 80.5732 90.5 83.1667Z" fill="#020B3A"/>
</svg>
